<svg xmlns="http://www.w3.org/2000/svg" xmlns:xlink="http://www.w3.org/1999/xlink" version="1.1" x="0px" y="0px" viewBox="0 0 500 625" style="enable-background:new 0 0 500 500;" xml:space="preserve"><path d="M404.6,229.4l-20.7-77.8c-2.6-12.9-20.6-27-36.8-27h-45.8v-16.7c0-7.1-5.8-13-13-13h-76.9c-7.1,0-13,5.8-13,13v16.7h-45.8  c-16.2,0-34.2,14.2-36.8,27l-20.7,77.8C71.5,233.1,53,253.9,53,278.8v32.5c0,27.5,22.5,50.1,50.1,50.1h15.7v21.3  c0,12.4,10.1,22.5,22.5,22.5h6.4c12.4,0,22.5-10.1,22.5-22.5v-21.3h159.8v21.3c0,12.4,10.1,22.5,22.5,22.5h6.4  c12.4,0,22.5-10.1,22.5-22.5v-21.3h15.7c27.5,0,50.1-22.5,50.1-50.1v-32.5C447,253.9,428.5,233.1,404.6,229.4z M146.3,326.6  c-16.4,0-29.6-13.3-29.6-29.6c0-16.4,13.3-29.6,29.6-29.6c16.4,0,29.6,13.3,29.6,29.6C176,313.4,162.7,326.6,146.3,326.6z   M213.2,228.8c-3.7-7.4-8.4-12.7-13.9-15.7c6.7-3.7,11.2-11,11.2-19.3c0-12.1-9.6-21.9-21.4-21.9c-11.8,0-21.3,9.8-21.3,21.9  c0,8.3,4.5,15.6,11.2,19.3c-5.4,3-10.2,8.3-13.9,15.7h-42.4l13.8-65.7c2.1-10.5,11.6-21.9,33.7-21.9h159.2  c22.1,0,31.6,11.3,33.7,21.9l13.8,65.7h-28.5l-6.4-8.7c-0.5-0.7-1.4-0.8-2.1-0.3c-0.4,0.3-0.6,0.7-0.6,1.1c-2.4-2.4-5-4.4-7.7-5.9  c7.8-4.2,13.2-12.5,13.2-22c0-5.5-1.8-10.6-4.8-14.7c0.4-0.3,0.8-0.6,1.1-1c1.6-1.6,2.6-3.9,2.6-6.4c0-5-4-9-9-9c0,0-11.2-3-15-3  c-4.1,0-16,3-16,3c-2.5,0-4.7,1-6.4,2.6c-1.6,1.6-2.6,3.9-2.6,6.4c0,3.3,1.8,6.2,4.5,7.8c-2.8,4-4.5,8.9-4.5,14.2  c0,9.5,5.3,17.8,13.2,22c-2.3,1.3-4.6,2.9-6.7,4.9c0-0.4-0.2-0.8-0.6-1.1c-0.3-0.2-0.6-0.3-0.9-0.3c-0.5,0-0.9,0.2-1.2,0.6l-7.2,9.7  H213.2z M353.7,326.6c-16.4,0-29.6-13.3-29.6-29.6c0-16.4,13.3-29.6,29.6-29.6c16.4,0,29.6,13.3,29.6,29.6  C383.3,313.4,370,326.6,353.7,326.6z"/><text x="0" y="515" fill="#000000" font-size="5px" font-weight="bold" font-family="'Helvetica Neue', Helvetica, Arial-Unicode, Arial, Sans-serif">Created by Qi studio</text><text x="0" y="520" fill="#000000" font-size="5px" font-weight="bold" font-family="'Helvetica Neue', Helvetica, Arial-Unicode, Arial, Sans-serif">from the Noun Project</text></svg>