<svg xmlns="http://www.w3.org/2000/svg" xmlns:xlink="http://www.w3.org/1999/xlink" version="1.1" x="0px" y="0px" viewBox="0 0 50 62.5" enable-background="new 0 0 50 50" xml:space="preserve"><g><path fill-rule="evenodd" clip-rule="evenodd" d="M21.337,22.33v-4.141h5.843l4.895,4.141H21.337z M18.495,22.33H10.26l2.652-4.141   h5.583V22.33z M14.97,33.99h18.214c-0.111-0.461-0.168-0.937-0.168-1.421c0-3.33,2.71-6.071,6.071-6.071   c3.36,0,6.071,2.743,6.071,6.071c0,0.483-0.057,0.96-0.168,1.421H50V23.215l-13.495-0.849l-8.295-7.017h-4.051l-0.521-2.639h-7.611   l-0.52,2.639h-4.144L6.893,22.33H0v11.66h3.164c-0.111-0.461-0.168-0.937-0.168-1.421c0-3.329,2.71-6.071,6.071-6.071   c3.36,0,6.071,2.742,6.071,6.071C15.138,33.053,15.08,33.529,14.97,33.99z M15.251,26.273h2.072v2.072h-2.072V26.273z    M17.323,28.345h2.072v2.071h-2.072V28.345z M19.395,28.345v-2.072h2.071v2.072H19.395z M21.466,28.345h2.072v2.071h-2.072V28.345z    M23.538,28.345v-2.072h2.072v2.072H23.538z M25.61,28.345h2.071v2.071H25.61V28.345z M27.681,28.345v-2.072h2.072v2.072H27.681z    M9.066,30.689c1.043,0,1.881,0.837,1.881,1.881c0,1.043-0.838,1.881-1.881,1.881c-1.042,0-1.881-0.839-1.881-1.881   C7.185,31.525,8.022,30.689,9.066,30.689z M13.788,32.569c0-2.603-2.117-4.722-4.722-4.722c-2.6,0-4.722,2.122-4.722,4.722   c0,2.604,2.118,4.722,4.722,4.722S13.788,35.173,13.788,32.569z M37.205,32.569c0-1.043,0.839-1.881,1.881-1.881   c1.043,0,1.88,0.838,1.88,1.881c0,1.043-0.838,1.881-1.88,1.881C38.045,34.451,37.205,33.612,37.205,32.569z M39.087,27.847   c-2.604,0-4.722,2.118-4.722,4.722c0,2.605,2.118,4.722,4.722,4.722c2.603,0,4.722-2.119,4.722-4.722   C43.808,29.967,41.691,27.847,39.087,27.847z M29.753,28.345h2.072v2.071h-2.072V28.345z"/></g><text x="0" y="65" fill="#000000" font-size="5px" font-weight="bold" font-family="'Helvetica Neue', Helvetica, Arial-Unicode, Arial, Sans-serif">Created by Georgiana Ionescu</text><text x="0" y="70" fill="#000000" font-size="5px" font-weight="bold" font-family="'Helvetica Neue', Helvetica, Arial-Unicode, Arial, Sans-serif">from the Noun Project</text></svg>