<svg xmlns="http://www.w3.org/2000/svg" xmlns:xlink="http://www.w3.org/1999/xlink" version="1.1" x="0px" y="0px" viewBox="-252 375.9 90 112.5" style="enable-background:new -252 375.9 90 90;" xml:space="preserve"><g><circle cx="-201.5" cy="388.7" r="6.5"/><path d="M-174,457c0-0.7-0.6-1.3-1.3-1.3h-5c0-0.5,0-0.9-0.1-1.4l-8.7-36c0-0.1-0.1-0.2-0.1-0.3c-1.1-5.2-2.3-10.3-2.8-12.5   l7.9,14.7c0.7,1.2,1.9,1.9,3.3,1.9c0.6,0,1.2-0.1,1.8-0.4c1.8-1,2.5-3.2,1.5-5l-9.8-18.1c-0.7-1.3-2.1-2-3.6-1.9l-15.5,1.2   l-10.4-6.6l-6.8-11.6c-1-1.8-3.3-2.4-5.1-1.3c-1.8,1-2.4,3.3-1.3,5.1l7.3,12.4c0.3,0.5,0.7,0.9,1.2,1.3l12.2,7.7   c0.5,0.3,1,0.5,1.6,0.5c0.3,4,0.8,11.7,1.1,15c0,0.2,0,0.4,0.1,0.7l3.4,34.2c0,0.1,0,0.2,0.1,0.4h-3.5c-0.7,0-1.3,0.6-1.3,1.3v3.9   c0,0,0,0.1,0,0.1h-30.5v2.3h64.3v-2.3h0c0,0,0-0.1,0-0.1V457z M-194.7,454.5l-2.6-27c0.6-0.1,1.3-0.2,1.9-0.3l6.9,28.5h-6.2   C-194.7,455.3-194.7,454.9-194.7,454.5z"/></g><text x="-252" y="480.9" fill="#000000" font-size="5px" font-weight="bold" font-family="'Helvetica Neue', Helvetica, Arial-Unicode, Arial, Sans-serif">Created by Eugene Dobrik</text><text x="-252" y="485.9" fill="#000000" font-size="5px" font-weight="bold" font-family="'Helvetica Neue', Helvetica, Arial-Unicode, Arial, Sans-serif">from the Noun Project</text></svg>